REM DIRINDEX 1\2,1\3,1\4,1\5
REM DIRNAME folder01,folder02,folder03,folder04,folder05
TITLE ""
FILE "1Q_t_0662-0671.mp3" MP3
  TRACK 01 AUDIO
    TITLE "3:cjc004_2888"
    INDEX 01 00:00:00
  TRACK 02 AUDIO
    TITLE "0:"
    INDEX 01 00:01:01
  TRACK 03 AUDIO
    TITLE "4:cjc004_2889"
    INDEX 01 00:01:28
  TRACK 04 AUDIO
    TITLE "0:"
    INDEX 01 00:02:51
  TRACK 05 AUDIO
    TITLE "5:cjc004_2890"
    INDEX 01 00:03:02
  TRACK 06 AUDIO
    TITLE "0:"
    INDEX 01 00:07:21
  TRACK 07 AUDIO
    TITLE "3:cjc004_2891"
    INDEX 01 00:08:01
  TRACK 08 AUDIO
    TITLE "0:"
    INDEX 01 00:09:30
  TRACK 09 AUDIO
    TITLE "4:cjc004_2892"
    INDEX 01 00:09:57
  TRACK 10 AUDIO
    TITLE "0:"
    INDEX 01 00:11:39
  TRACK 11 AUDIO
    TITLE "5:cjc004_2893"
    INDEX 01 00:11:62
  TRACK 12 AUDIO
    TITLE "0:"
    INDEX 01 00:15:60
  TRACK 13 AUDIO
    TITLE "3:cjc004_2894"
    INDEX 01 00:16:34
  TRACK 14 AUDIO
    TITLE "0:"
    INDEX 01 00:17:53
  TRACK 15 AUDIO
    TITLE "4:cjc004_2895"
    INDEX 01 00:18:05
  TRACK 16 AUDIO
    TITLE "0:"
    INDEX 01 00:19:38
  TRACK 17 AUDIO
    TITLE "5:cjc004_2896"
    INDEX 01 00:19:63
  TRACK 18 AUDIO
    TITLE "0:"
    INDEX 01 00:22:46
  TRACK 19 AUDIO
    TITLE "3:cjc004_2897"
    INDEX 01 00:23:20
  TRACK 20 AUDIO
    TITLE "0:"
    INDEX 01 00:24:37
  TRACK 21 AUDIO
    TITLE "4:cjc004_2898"
    INDEX 01 00:24:65
  TRACK 22 AUDIO
    TITLE "0:"
    INDEX 01 00:25:68
  TRACK 23 AUDIO
    TITLE "5:cjc004_2899"
    INDEX 01 00:26:18
  TRACK 24 AUDIO
    TITLE "0:"
    INDEX 01 00:31:04
  TRACK 25 AUDIO
    TITLE "3:cjc004_2900"
    INDEX 01 00:31:55
  TRACK 26 AUDIO
    TITLE "0:"
    INDEX 01 00:32:74
  TRACK 27 AUDIO
    TITLE "4:cjc004_2901"
    INDEX 01 00:33:28
  TRACK 28 AUDIO
    TITLE "0:"
    INDEX 01 00:35:17
  TRACK 29 AUDIO
    TITLE "5:cjc004_2902"
    INDEX 01 00:35:43
  TRACK 30 AUDIO
    TITLE "0:"
    INDEX 01 00:39:21
  TRACK 31 AUDIO
    TITLE "3:cjc004_2903"
    INDEX 01 00:39:72
  TRACK 32 AUDIO
    TITLE "0:"
    INDEX 01 00:41:14
  TRACK 33 AUDIO
    TITLE "4:cjc004_2904"
    INDEX 01 00:41:42
  TRACK 34 AUDIO
    TITLE "0:"
    INDEX 01 00:42:59
  TRACK 35 AUDIO
    TITLE "5:cjc004_2905"
    INDEX 01 00:43:09
  TRACK 36 AUDIO
    TITLE "0:"
    INDEX 01 00:47:52
  TRACK 37 AUDIO
    TITLE "3:cjc004_2906"
    INDEX 01 00:48:30
  TRACK 38 AUDIO
    TITLE "0:"
    INDEX 01 00:49:27
  TRACK 39 AUDIO
    TITLE "4:cjc004_2907"
    INDEX 01 00:49:59
  TRACK 40 AUDIO
    TITLE "0:"
    INDEX 01 00:51:11
  TRACK 41 AUDIO
    TITLE "5:cjc004_2908"
    INDEX 01 00:51:40
  TRACK 42 AUDIO
    TITLE "0:"
    INDEX 01 00:55:55
  TRACK 43 AUDIO
    TITLE "3:cjc004_2909"
    INDEX 01 00:56:31
  TRACK 44 AUDIO
    TITLE "0:"
    INDEX 01 00:57:35
  TRACK 45 AUDIO
    TITLE "4:cjc004_2910"
    INDEX 01 00:57:72
  TRACK 46 AUDIO
    TITLE "0:"
    INDEX 01 00:59:24
  TRACK 47 AUDIO
    TITLE "5:cjc004_2911"
    INDEX 01 00:59:53
  TRACK 48 AUDIO
    TITLE "0:"
    INDEX 01 01:04:74
  TRACK 49 AUDIO
    TITLE "3:cjc004_2912"
    INDEX 01 01:05:54
  TRACK 50 AUDIO
    TITLE "0:"
    INDEX 01 01:06:61
  TRACK 51 AUDIO
    TITLE "4:cjc004_2913"
    INDEX 01 01:07:14
  TRACK 52 AUDIO
    TITLE "0:"
    INDEX 01 01:08:31
  TRACK 53 AUDIO
    TITLE "5:cjc004_2914"
    INDEX 01 01:08:58
  TRACK 54 AUDIO
    TITLE "0:"
    INDEX 01 01:13:44
  TRACK 55 AUDIO
    TITLE "3:cjc004_2915"
    INDEX 01 01:14:21
  TRACK 56 AUDIO
    TITLE "0:"
    INDEX 01 01:15:44
  TRACK 57 AUDIO
    TITLE "4:cjc004_2916"
    INDEX 01 01:15:70
  TRACK 58 AUDIO
    TITLE "0:"
    INDEX 01 01:17:12
  TRACK 59 AUDIO
    TITLE "5:cjc004_2917"
    INDEX 01 01:17:37
  TRACK 60 AUDIO
    TITLE "0:"
    INDEX 01 01:22:37
